<svg width="274" height="71" viewBox="0 0 274 71" fill="none" xmlns="http://www.w3.org/2000/svg">
<path d="M23.0758 23.8741C21.26 22.0283 18.8979 21.1055 15.987 21.1055H6.89258V48.3563H15.987C18.8852 48.3563 21.2473 47.446 23.0758 45.6229C24.9296 43.7797 25.8552 41.4788 25.8552 38.7228V30.7389C25.8552 27.9704 24.9296 25.6821 23.0758 23.8741ZM21.9782 37.8176C21.9782 40.1939 21.4092 42.0019 20.2686 43.2365C19.128 44.4737 17.4412 45.0923 15.2106 45.0923H10.5597V24.3694H15.2106C17.4412 24.3694 19.128 24.988 20.2686 26.2252C21.4092 27.4599 21.9782 29.2679 21.9782 31.6442V37.8176Z" fill="#FF7D29"/>
<path d="M36.6905 21.1084H33.0234V48.3592H36.6905V21.1084Z" fill="#FF7D29"/>
<path d="M89.577 39.4115H93.454C93.454 42.2153 92.5891 44.5162 90.8643 46.3116C89.1117 48.1322 86.8128 49.0425 83.9626 49.0425C81.1124 49.0425 78.7199 48.1322 76.8535 46.3116C75.0124 44.4433 74.0918 42.1424 74.0918 39.4115V30.3288C74.0918 27.5853 75.0124 25.297 76.8535 23.4639C78.7073 21.6182 81.077 20.6953 83.9626 20.6953C86.8482 20.6953 89.1117 21.6056 90.8643 23.4287C92.5916 25.2266 93.454 27.5275 93.454 30.3288H89.577C89.4759 28.3649 88.9372 26.8159 87.961 25.6818C86.9848 24.5452 85.652 23.9794 83.9626 23.9794C82.0962 23.9794 80.6319 24.6231 79.5671 25.9131C78.5024 27.2031 77.9688 28.9759 77.9688 31.2366V38.5113C77.9688 40.7694 78.4999 42.5448 79.5671 43.8347C80.6319 45.1247 82.0987 45.7685 83.9626 45.7685C85.652 45.7685 86.9848 45.2002 87.961 44.0661C88.9372 42.9295 89.4759 41.3805 89.577 39.4191V39.4115Z" fill="#FF7D29"/>
<path d="M116.723 23.1875C114.91 21.3418 112.545 20.4189 109.634 20.4189C106.724 20.4189 104.377 21.3418 102.525 23.1875C100.684 25.0207 99.7637 27.309 99.7637 30.0524V39.1377C99.7637 41.8686 100.684 44.1694 102.525 46.0378C104.389 47.8584 106.759 48.7687 109.634 48.7687C112.51 48.7687 114.897 47.8584 116.723 46.0378C118.59 44.182 119.523 41.8811 119.523 39.1377V30.0524C119.523 27.2964 118.59 25.0081 116.723 23.1875ZM115.646 38.2324C115.646 40.478 115.11 42.2508 114.04 43.5458C112.968 44.8408 111.498 45.4871 109.634 45.4871C107.771 45.4871 106.304 44.8433 105.239 43.5534C104.172 42.2659 103.641 40.4906 103.641 38.2324V30.9577C103.641 28.6996 104.172 26.9242 105.239 25.6368C106.304 24.3468 107.768 23.703 109.634 23.703C111.501 23.703 112.968 24.3493 114.04 25.6443C115.11 26.9393 115.646 28.7121 115.646 30.9577V38.2324Z" fill="#FF7D29"/>
<path d="M126.592 39.3138V20.9697H130.259V38.4085C130.259 40.6566 130.77 42.3967 131.791 43.6339C132.813 44.8711 134.242 45.4872 136.083 45.4872C137.924 45.4872 139.351 44.8686 140.365 43.6339C141.379 42.3992 141.887 40.6566 141.887 38.4085V20.9697H145.554V39.3138C145.554 42.0824 144.692 44.3455 142.965 46.1083C141.225 47.8836 138.931 48.7687 136.083 48.7687C133.236 48.7687 130.921 47.8811 129.182 46.1083C127.454 44.3455 126.592 42.0799 126.592 39.3138Z" fill="#FF7D29"/>
<path d="M168.713 48.2205L157.105 26.4164V48.2205H153.814V20.9697H157.879L169.487 42.7739V20.9697H172.777V48.2205H168.713Z" fill="#FF7D29"/>
<path d="M178.502 24.2337V20.9697H197.277V24.2337H189.733V48.2205H186.046V24.2337H178.502Z" fill="#FF7D29"/>
<path d="M229.829 48.2205H226.349L217.445 24.9981V48.2205H214.154V20.9697H219.185L228.089 43.7848L236.994 20.9697H242.024V48.2205H238.734V24.9981L229.829 48.2205Z" fill="#FF7D29"/>
<path d="M267.111 44.9566V48.2205H250.852V20.9697H267.111V24.2337H254.519V32.5897H265.94V35.8713H254.519V44.9566H267.111Z" fill="#FF7D29"/>
<path d="M81.0741 64.4905L80.2749 62.1393H76.7292L75.9427 64.4905H74.7363L77.9027 55.4404H79.1697L82.3361 64.4905H81.069H81.0741ZM78.4995 56.8536L77.0706 61.1134H79.9335L78.4995 56.8536Z" fill="#00B047"/>
<path d="M90.8897 60.8715V59.8456H94.1244V61.4725C94.1244 62.4029 93.8183 63.1724 93.2088 63.7759C92.6069 64.3719 91.8331 64.6711 90.8897 64.6711C89.9464 64.6711 89.175 64.3694 88.563 63.7633C87.9611 63.1422 87.6602 62.3778 87.6602 61.4725V58.455C87.6602 57.5447 87.9611 56.7828 88.563 56.1743C89.17 55.5607 89.9439 55.2539 90.8897 55.2539C91.8356 55.2539 92.5867 55.5456 93.1836 56.1265C93.7728 56.6998 94.0864 57.4366 94.1244 58.3368H92.8573C92.8244 57.7509 92.6297 57.2731 92.2756 56.901C91.9216 56.5288 91.4588 56.3452 90.8897 56.3452C90.2802 56.3452 89.7997 56.559 89.4507 56.9865C89.1017 57.414 88.9272 58.0049 88.9272 58.7542V61.1708C88.9272 61.9126 89.1118 62.501 89.4811 62.9335C89.8503 63.366 90.3409 63.5823 90.9555 63.5823C92.3035 63.5823 92.9787 62.7801 92.9787 61.1733V60.8741H90.8872L90.8897 60.8715Z" fill="#00B047"/>
<path d="M102.1 63.4038V64.4876H96.7793V55.4375H102.1V56.5213H97.9806V59.2974H101.716V60.3862H97.9806V63.4038H102.1Z" fill="#00B047"/>
<path d="M109.571 64.4905L105.773 57.2484V64.4905H104.695V55.4404H106.026L109.824 62.6825V55.4404H110.902V64.4905H109.571Z" fill="#00B047"/>
<path d="M113.939 64.4905V55.4404H115.141V64.4905H113.939Z" fill="#00B047"/>
<path d="M117.988 61.5304V55.4375H119.19V61.2286C119.19 61.9755 119.356 62.5538 119.69 62.9637C120.024 63.3736 120.492 63.5798 121.094 63.5798C121.696 63.5798 122.164 63.3736 122.495 62.9637C122.826 62.5538 122.993 61.9755 122.993 61.2286V55.4375H124.195V61.5304C124.195 62.4507 123.911 63.2026 123.347 63.786C122.778 64.3744 122.027 64.6686 121.096 64.6686C120.166 64.6686 119.407 64.3744 118.838 63.786C118.274 63.2001 117.991 62.4482 117.991 61.5304H117.988Z" fill="#00B047"/>
<path d="M126.726 57.7916C126.726 57.0925 127.02 56.494 127.604 55.9936C128.181 55.5033 128.861 55.2568 129.64 55.2568C130.548 55.2568 131.271 55.5259 131.812 56.064C132.354 56.6021 132.622 57.2987 132.622 58.1562H131.355C131.355 57.6055 131.2 57.1679 130.894 56.8385C130.588 56.5091 130.168 56.3457 129.642 56.3457C129.116 56.3457 128.709 56.4739 128.398 56.7304C128.087 56.9869 127.935 57.3414 127.935 57.789C127.935 58.0053 127.991 58.1964 128.1 58.3624C128.208 58.5283 128.358 58.6666 128.542 58.7748C128.727 58.8829 128.942 58.981 129.182 59.0715C129.422 59.162 129.678 59.2475 129.943 59.3305C130.209 59.4135 130.474 59.5015 130.743 59.5945C131.011 59.6876 131.261 59.8058 131.504 59.9491C131.747 60.0924 131.959 60.2508 132.144 60.4319C132.328 60.613 132.477 60.8418 132.586 61.1209C132.695 61.4 132.751 61.7169 132.751 62.0689C132.751 62.8107 132.467 63.4268 131.903 63.9197C131.329 64.4176 130.621 64.669 129.776 64.669C128.788 64.669 128.001 64.41 127.419 63.892C126.838 63.374 126.547 62.6674 126.547 61.7722H127.809C127.809 62.3531 127.978 62.8007 128.317 63.1125C128.656 63.4243 129.142 63.5802 129.776 63.5802C130.285 63.5802 130.707 63.4369 131.043 63.1502C131.38 62.8635 131.552 62.5039 131.552 62.0714C131.552 61.835 131.496 61.6289 131.387 61.4503C131.279 61.2718 131.129 61.1234 130.945 61.0077C130.76 60.8921 130.545 60.789 130.305 60.6959C130.065 60.6029 129.809 60.5174 129.541 60.4369C129.273 60.3565 129.005 60.271 128.74 60.1804C128.474 60.0899 128.221 59.9793 127.978 59.8435C127.736 59.7077 127.523 59.5568 127.338 59.3808C127.154 59.2048 127.005 58.9835 126.896 58.7119C126.787 58.4403 126.731 58.1335 126.731 57.7865L126.726 57.7916Z" fill="#00B047"/>
<path d="M145.28 61.289C145.28 62.2043 144.977 62.9687 144.37 63.5798C143.773 64.1858 142.999 64.4876 142.051 64.4876H139.074V55.4375H142.051C143.004 55.4375 143.776 55.7443 144.37 56.3578C144.977 56.9588 145.28 57.7182 145.28 58.6386V61.289ZM144.013 58.9378C144.013 58.1482 143.826 57.5473 143.454 57.1374C143.083 56.7275 142.529 56.5213 141.801 56.5213H140.278V63.4038H141.801C142.531 63.4038 143.083 63.1976 143.454 62.7877C143.826 62.3778 144.013 61.7768 144.013 60.9872V58.9378Z" fill="#00B047"/>
<path d="M153.264 63.4038V64.4876H147.943V55.4375H153.264V56.5213H149.145V59.2974H152.88V60.3862H149.145V63.4038H153.264Z" fill="#00B047"/>
<path d="M161.049 64.4905L160.25 62.1393H156.704L155.917 64.4905H154.711L157.877 55.4404H159.144L162.311 64.4905H161.044H161.049ZM158.474 56.8536L157.045 61.1134H159.908L158.474 56.8536Z" fill="#00B047"/>
<path d="M169.408 63.4038V64.4876H164.219V55.4375H165.42V63.4038H169.411H169.408Z" fill="#00B047"/>
<path d="M176.434 64.4905H175.232V55.4404H180.422V56.5242H176.431V59.5418H180.043V60.6306H176.431V64.4905H176.434Z" fill="#00B047"/>
<path d="M188.66 58.455V61.4725C188.66 62.3828 188.353 63.1473 187.744 63.7633C187.147 64.3694 186.373 64.6711 185.425 64.6711C184.476 64.6711 183.71 64.3694 183.098 63.7633C182.496 63.1422 182.195 62.3778 182.195 61.4725V58.455C182.195 57.5447 182.496 56.7828 183.098 56.1743C183.705 55.5607 184.479 55.2539 185.425 55.2539C186.371 55.2539 187.15 55.5607 187.744 56.1743C188.353 56.7803 188.66 57.5397 188.66 58.455ZM187.392 61.1708V58.7542C187.392 58.0074 187.218 57.419 186.866 56.989C186.515 56.559 186.034 56.3427 185.425 56.3427C184.815 56.3427 184.335 56.5565 183.986 56.984C183.637 57.4114 183.462 58.0024 183.462 58.7517V61.1683C183.462 61.9176 183.637 62.5086 183.986 62.936C184.335 63.3635 184.813 63.5773 185.425 63.5773C186.037 63.5773 186.515 63.361 186.866 62.931C187.218 62.501 187.392 61.9126 187.392 61.1658V61.1708Z" fill="#00B047"/>
<path d="M192.516 61.1134V64.4905H191.314V55.4404H194.481C195.371 55.4404 196.077 55.6818 196.598 56.1646C197.129 56.6349 197.397 57.2811 197.397 58.0984V58.2744C197.397 58.8704 197.205 59.416 196.823 59.9064C196.456 60.3816 196.016 60.711 195.505 60.8971L198.029 64.4905H196.6L194.243 61.1134H192.518H192.516ZM192.516 56.5242V60.0246H194.099C195.452 60.0246 196.127 59.4412 196.127 58.2744C196.127 57.7212 195.953 57.2912 195.601 56.9844C195.25 56.6776 194.749 56.5242 194.099 56.5242H192.516Z" fill="#00B047"/>
<path d="M209.235 63.4038V64.4876H203.914V55.4375H209.235V56.5213H205.115V59.2974H208.851V60.3862H205.115V63.4038H209.235Z" fill="#00B047"/>
<path d="M211.954 55.4404L214.384 62.8988L216.835 55.4404H218.036L214.999 64.4905H213.732L210.689 55.4404H211.957H211.954Z" fill="#00B047"/>
<path d="M225.257 63.4038V64.4876H219.936V55.4375H225.257V56.5213H221.137V59.2974H224.872V60.3862H221.137V63.4038H225.257Z" fill="#00B047"/>
<path d="M229.051 61.1134V64.4905H227.85V55.4404H231.016C231.906 55.4404 232.612 55.6818 233.133 56.1646C233.664 56.6349 233.932 57.2811 233.932 58.0984V58.2744C233.932 58.8704 233.74 59.416 233.358 59.9064C232.991 60.3816 232.551 60.711 232.04 60.8971L234.564 64.4905H233.135L230.778 61.1134H229.053H229.051ZM229.051 56.5242V60.0246H230.634C231.987 60.0246 232.662 59.4412 232.662 58.2744C232.662 57.7212 232.488 57.2912 232.136 56.9844C231.785 56.6776 231.284 56.5242 230.634 56.5242H229.051Z" fill="#00B047"/>
<path d="M238.164 64.4905V60.9902L235.127 55.4404H236.457L238.802 59.8058L241.146 55.4404H242.408L239.371 60.9902V64.4905H238.164Z" fill="#00B047"/>
<path d="M249.89 58.455V61.4725C249.89 62.3828 249.584 63.1473 248.974 63.7633C248.378 64.3694 247.604 64.6711 246.655 64.6711C245.707 64.6711 244.941 64.3694 244.329 63.7633C243.727 63.1422 243.426 62.3778 243.426 61.4725V58.455C243.426 57.5447 243.727 56.7828 244.329 56.1743C244.936 55.5607 245.709 55.2539 246.655 55.2539C247.601 55.2539 248.38 55.5607 248.974 56.1743C249.584 56.7803 249.89 57.5397 249.89 58.455ZM248.623 61.1708V58.7542C248.623 58.0074 248.448 57.419 248.097 56.989C247.745 56.559 247.265 56.3427 246.655 56.3427C246.046 56.3427 245.565 56.5565 245.216 56.984C244.867 57.4114 244.693 58.0024 244.693 58.7517V61.1683C244.693 61.9176 244.867 62.5086 245.216 62.936C245.565 63.3635 246.043 63.5773 246.655 63.5773C247.267 63.5773 247.745 63.361 248.097 62.931C248.448 62.501 248.623 61.9126 248.623 61.1658V61.1708Z" fill="#00B047"/>
<path d="M257.421 64.4905L253.622 57.2484V64.4905H252.545V55.4404H253.875L257.674 62.6825V55.4404H258.751V64.4905H257.421Z" fill="#00B047"/>
<path d="M267.11 63.4038V64.4876H261.789V55.4375H267.11V56.5213H262.99V59.2974H266.726V60.3862H262.99V63.4038H267.11Z" fill="#00B047"/>
<path d="M56.6912 36.0316L56.2891 35.501H59.3745C59.5996 35.7424 59.8272 35.9863 60.0548 36.2302L60.2571 36.444C60.2622 36.6954 60.2571 36.9544 60.2445 37.221L56.6912 36.0316Z" fill="#00B047"/>
<path d="M68.5088 55.4645C67.4061 60.3076 62.6186 64.4391 57.3709 65.0753C56.8272 65.1407 56.2784 65.1734 55.7296 65.1734C51.8146 65.1734 47.8441 63.5389 45.267 60.7829C42.1537 57.4535 41.8553 52.7663 41.9767 48.6197L48.2968 48.8033C48.2133 51.6749 48.3372 54.8358 49.8976 56.503C51.453 58.1652 54.2122 59.1257 56.6071 58.834C58.9187 58.5549 61.7739 56.5759 62.343 54.0789C63.4709 49.1176 57.682 42.9266 55.7801 40.8923L55.4236 40.5101C53.8581 38.8354 52.3255 37.1958 50.8359 35.501H55.9066L56.5035 36.2881L60.0517 36.7709L59.7052 35.9184C59.7204 35.6896 60.7193 36.7709 60.56 36.7709C64.8138 41.3474 70.1602 48.2023 68.5088 55.4645Z" fill="#00B047"/>
<path d="M68.6233 22.4278L62.3159 22.8679C61.9618 17.8764 60.7656 14.6174 58.76 13.1841C56.3423 11.4591 52.3388 11.8388 50.1917 13.9938C47.8195 16.3777 47.4401 20.0867 49.2711 23.0162C50.5862 25.1184 52.091 27.3514 52.9939 29.1594C53.004 29.1795 53.4946 28.8853 53.5098 28.9029C53.5781 28.9834 53.6438 29.0664 53.7096 29.1469C55.5102 31.3396 57.4121 33.4016 59.3746 35.5013H50.8366C48.3936 32.7277 46.0668 29.8032 43.8995 26.333C40.5182 20.9241 41.2592 14.0315 45.6976 9.57313C50.0147 5.23543 57.5284 4.56655 62.4474 8.07694C66.1043 10.6896 68.125 15.3819 68.6233 22.4278Z" fill="#FF7D29"/>
<path d="M52.4952 29.5548C53.3449 28.9513 55.6413 27.6588 56.1142 29.419C56.1142 29.419 60.8233 31.6168 60.3832 37.4305L56.5973 36.1632L52.3788 30.6084C52.1588 30.3167 52.1967 29.7685 52.4952 29.5573V29.5548Z" fill="#00B047"/>
<path d="M56.3598 29.4919C56.3294 28.9789 55.8084 28.4936 55.5834 28.388C55.0548 28.1441 54.2227 28.3402 53.5095 28.652C53.0467 28.8507 52.637 29.0996 52.3892 29.3058C52.0478 29.59 51.9896 30.3443 52.2602 30.6964L55.9071 35.5018H56.289L52.5005 30.5153C52.4297 30.4198 52.3942 30.3066 52.3942 30.196C52.3942 30.0426 52.4575 29.6428 52.5839 29.5371C52.8292 29.3309 53.2516 29.0845 53.7093 28.8959C54.3391 28.6319 55.0396 28.471 55.4544 28.6621C55.6896 28.7727 56.0588 29.2455 56.0588 29.5874V29.688L56.1524 29.7283C56.1954 29.7484 60.1103 31.5488 60.257 36.4448L60.4113 36.6107C60.4618 36.6635 60.5099 36.7189 60.5605 36.7717C60.5959 31.8456 57.0021 29.7987 56.3598 29.4919Z" fill="#FDFDFD"/>
<path d="M48.0141 31.617C48.0141 31.617 45.6621 31.353 45.6798 33.2591C45.6823 33.6237 45.8745 33.9657 46.1805 34.1643C46.4865 34.363 47.0025 34.6094 47.7308 34.7226C47.7308 34.7226 45.6039 36.5431 48.1481 37.4283C48.1481 37.4283 46.9873 39.87 50.2447 38.0947C50.2447 38.0947 47.7941 40.5238 52.0757 40.2421L55.6897 37.031L51.6281 31.5391L48.0141 31.617Z" fill="#00B047"/>
<path d="M51.7059 31.3857L48.0211 31.4637C47.8896 31.4511 46.7363 31.3556 46.0408 31.9792C45.6969 32.2885 45.5224 32.7185 45.5275 33.2591C45.5325 33.674 45.7449 34.0588 46.0965 34.2901C46.362 34.4636 46.7945 34.6849 47.4166 34.8182C47.1207 35.1325 46.6453 35.7561 46.7641 36.3923C46.8552 36.8651 47.2522 37.2448 47.9452 37.5164C47.8314 37.8055 47.6518 38.4166 47.9831 38.7284C48.2689 38.9975 48.8329 38.9371 49.6978 38.5423C49.4778 38.8893 49.2906 39.342 49.4651 39.7267C49.6751 40.1894 50.32 40.4182 51.4251 40.4182C51.63 40.4182 51.85 40.4107 52.0878 40.3956H52.1409L55.8965 37.0537L51.7059 31.3883V31.3857ZM52.0144 40.0938C50.368 40.1944 49.8698 39.8826 49.7408 39.601C49.536 39.1534 50.1126 38.4392 50.3503 38.2028L51.1014 37.456L50.1707 37.964C48.709 38.7611 48.2993 38.6102 48.1905 38.5096C47.9806 38.3135 48.1703 37.7477 48.2689 37.5264L49.5284 36.5885L48.1374 37.2674C47.4976 37.0336 47.1334 36.7217 47.06 36.3395C46.9235 35.6229 47.8162 34.8458 47.8263 34.8383L48.0742 34.6246L47.7505 34.5743C47.0272 34.4611 46.5391 34.2222 46.2609 34.0387C45.9978 33.8651 45.8309 33.5659 45.8284 33.2591C45.8233 32.8115 45.9624 32.457 46.2406 32.208C46.8602 31.6498 47.9831 31.768 47.9958 31.768H48.0059L51.5516 31.6925L55.4842 37.0109L52.0144 40.0963V40.0938Z" fill="#FDFDFD"/>
<path d="M60.2507 46.709C59.6488 46.709 59.1885 46.1709 59.0418 45.6403C58.9229 45.2078 58.9558 44.7627 58.9836 44.3327C58.9912 44.2246 58.9988 44.1165 59.0039 44.0084C59.0595 42.834 58.8193 41.6522 58.3059 40.5935C57.967 39.8919 57.5573 39.4217 57.0894 39.1929C57.4384 40.7092 57.6913 42.2607 57.8405 43.8072C57.881 44.2322 57.881 44.6647 57.5952 44.9639C57.5649 44.9941 57.5244 45.0117 57.4865 45.0117C57.4586 45.0117 57.4333 45.0041 57.4081 44.9891C56.7455 44.5943 56.4521 43.8424 56.2498 43.1559C55.969 42.2003 55.7844 41.2121 55.6984 40.2188C55.6807 40.0252 55.6327 39.7888 55.4936 39.7612H55.4885C55.3899 39.7612 55.3039 39.8341 55.266 39.9246C55.2129 40.0529 55.228 40.2163 55.2382 40.3597C55.3115 41.3077 55.3899 42.2909 55.7035 43.1961C55.8325 43.5683 55.9286 43.9505 55.7035 44.1039C55.6504 44.1391 55.5947 44.1567 55.5315 44.1567C55.3039 44.1567 55.1092 43.9128 55.0055 43.7795C54.6944 43.3898 54.4744 42.907 54.3226 42.2884C54.2518 41.9942 54.1987 41.6949 54.1456 41.4057C54.0773 41.0185 54.0065 40.6161 53.8902 40.2364C53.8345 40.0554 53.7587 39.8542 53.612 39.7436C53.5538 39.6983 53.4729 39.6732 53.397 39.6732C53.3641 39.6732 53.3136 39.6782 53.2706 39.7033L53.7258 41.6044C53.7764 41.8131 53.7688 42.0972 53.6373 42.2607C53.569 42.3487 53.4678 42.3965 53.3591 42.3965C53.1214 42.3839 52.9949 42.1903 52.9342 42.0973C52.4916 41.4208 52.1047 40.7016 51.7835 39.9598C51.7633 39.9146 51.743 39.8718 51.7253 39.8341C51.6191 39.6128 51.5104 39.3815 51.7177 39.0797C51.7911 38.9741 51.8771 38.8861 51.9605 38.8006C52.0263 38.7327 52.087 38.6698 52.1401 38.6019C52.3905 38.275 52.5599 37.9884 52.6712 37.7017C52.914 37.0781 52.8507 36.4067 52.5093 35.9943C52.1603 35.5718 51.6697 35.4914 51.1487 35.4084C51.0147 35.3858 50.8781 35.3631 50.7441 35.3355C50.5215 35.2902 50.4305 35.2475 50.4153 35.0237C50.4153 34.991 50.4102 34.9507 50.4026 34.8954C50.3824 34.7672 50.3293 34.6389 50.2484 34.5107C50.0966 34.2743 49.8488 34.0782 49.5681 33.97C49.3101 33.872 49.0142 33.8242 48.6374 33.8217H48.6349C48.4856 33.8217 48.3617 33.8292 48.2378 33.8342L48.0709 33.8443C48.0355 33.8443 48.0077 33.8493 47.9849 33.8493C47.7674 33.8493 47.7522 33.6809 47.7421 33.5677L47.7371 33.5174C47.7244 33.3992 47.7143 33.281 47.7042 33.1679C47.6587 32.6574 47.6182 32.1721 47.4159 31.6742C47.2768 31.3347 47.0972 31.0129 46.8822 30.7212C46.8696 30.7036 46.8266 30.6382 46.7684 30.5477C46.6597 30.3741 46.336 29.8687 46.2323 29.7581C46.212 29.7505 46.1918 29.7354 46.1741 29.7178C46.1185 29.655 46.1261 29.5594 46.1893 29.5041C46.991 28.8176 47.8079 28.1814 48.5944 27.5704C49.3784 26.9593 50.1927 26.3281 50.9894 25.6442C51.0172 25.619 51.0526 25.6064 51.088 25.6064C51.1259 25.6064 51.1639 25.6215 51.1942 25.6492C52.1502 26.567 53.2276 27.3516 54.3935 27.9828C54.4466 28.0129 54.4769 28.0708 54.4719 28.1311C54.4668 28.1915 54.4238 28.2418 54.3656 28.2594C53.7915 28.4379 53.263 28.7899 52.8786 29.2501C52.7875 29.3582 52.5852 29.6348 52.6914 29.836C52.7546 29.9542 52.9165 30.0196 53.0505 30.0598C53.3768 30.1629 53.7182 30.2157 54.0647 30.2157C54.2012 30.2157 54.3378 30.2082 54.4744 30.1906L54.5199 30.1855C54.5983 30.1755 54.6792 30.1654 54.7602 30.1654C54.8537 30.1654 54.9347 30.178 55.008 30.2057C55.1749 30.266 55.2963 30.3993 55.3823 30.4948C57.4637 32.7806 58.9735 35.2852 59.8688 37.9431C60.8399 40.8274 61.0448 43.8147 60.453 46.5833C60.4378 46.6487 60.3822 46.6965 60.3164 46.7015C60.2937 46.7015 60.2684 46.7015 60.2456 46.7015L60.2507 46.709Z" fill="#FF7D29"/>
<path d="M59.9218 37.8427C59.019 35.1621 57.499 32.6399 55.405 30.3391C55.3114 30.236 55.1698 30.0826 54.9675 30.0097C54.8789 29.9745 54.7803 29.9594 54.669 29.9594C54.5755 29.9594 54.4869 29.9694 54.4085 29.9795L54.3655 29.987C54.2366 30.0021 54.1051 30.0097 53.9761 30.0097C53.6448 30.0097 53.3211 29.9594 53.0075 29.8613C52.8557 29.8135 52.7672 29.7632 52.7369 29.7104C52.6964 29.6325 52.7647 29.464 52.9063 29.293C53.2755 28.8555 53.7788 28.521 54.3251 28.35C54.4414 28.3148 54.5249 28.2117 54.535 28.091C54.5476 27.9703 54.4844 27.8546 54.3782 27.7968C53.2502 27.1883 51.447 25.8782 50.5189 24.998C50.6883 25.2369 50.8376 25.4909 51.0247 25.7172C51.1992 25.931 51.4243 26.0969 51.6317 26.2755C52.0515 26.6351 52.489 26.9695 52.9442 27.2788C53.1541 27.4221 53.3691 27.5579 53.5841 27.6912C53.6928 27.7566 53.8016 27.822 53.9128 27.8848C53.9609 27.9125 54.1835 28.0784 54.2315 28.0634C53.6271 28.252 53.0783 28.6166 52.6711 29.0994C52.4941 29.3106 52.3373 29.6073 52.4662 29.8512C52.5573 30.0222 52.7571 30.1027 52.9392 30.158C53.182 30.2335 53.4323 30.2838 53.6878 30.3014C53.9179 30.3164 54.1632 30.3164 54.401 30.2863C54.4869 30.2737 54.578 30.2611 54.6665 30.2611C54.7323 30.2611 54.798 30.2687 54.8612 30.2913C54.9877 30.3391 55.0863 30.4422 55.1774 30.5402C57.1298 32.6877 58.7079 35.1923 59.631 37.9382C60.5566 40.6817 60.8171 43.6665 60.2127 46.498C60.1924 46.5005 60.1722 46.5005 60.1545 46.5005C59.6487 46.5005 59.2263 46.0378 59.0923 45.5449C58.9507 45.0319 59.0341 44.4913 59.0594 43.9607C59.1176 42.7638 58.8697 41.5517 58.3488 40.473C58.0149 39.7839 57.5167 39.1075 56.7808 38.8913C57.1627 40.4956 57.4333 42.1225 57.5926 43.7646C57.628 44.1267 57.6432 44.5366 57.3903 44.8006C56.7833 44.441 56.4975 43.7294 56.3003 43.0555C56.0221 42.1074 55.84 41.1318 55.754 40.1486C55.7337 39.9072 55.668 39.6029 55.4303 39.5551C55.4126 39.5526 55.3949 39.5501 55.3772 39.5501C55.2279 39.5501 55.0889 39.6708 55.0332 39.8116C54.9675 39.97 54.9801 40.1461 54.9953 40.317C55.0711 41.2877 55.1495 42.2709 55.4682 43.1912C55.5163 43.3295 55.6933 43.8098 55.5238 43.9255C55.4985 43.9431 55.4682 43.9507 55.4379 43.9507C55.324 43.9507 55.1976 43.83 55.1066 43.7269C54.9927 43.5986 54.8865 43.4628 54.8005 43.3145C54.229 42.3237 54.2619 41.1896 53.9381 40.141C53.8749 39.9298 53.7864 39.7085 53.6094 39.5727C53.5234 39.5073 53.4096 39.4696 53.3008 39.4696C53.1845 39.4696 53.0757 39.5124 53.0049 39.6029C53.1643 40.2642 53.3236 40.9256 53.4829 41.5894C53.5411 41.8308 53.5057 42.1929 53.2629 42.1929H53.2502C53.1238 42.1879 53.0327 42.0697 52.9645 41.9641C52.5244 41.2927 52.1451 40.5836 51.8264 39.8493C51.7 39.5601 51.5583 39.3866 51.7455 39.1151C51.8669 38.9416 52.0363 38.8083 52.1653 38.6423C52.3878 38.3531 52.5851 38.0438 52.7191 37.7044C52.9543 37.0958 52.9493 36.3515 52.532 35.8461C52.0515 35.2677 51.3535 35.2778 50.6808 35.1369C50.486 35.0967 50.4784 35.0841 50.4734 34.9735C50.4683 34.8729 50.4405 34.7095 50.4051 34.6164C50.2559 34.2317 49.9119 33.9274 49.53 33.7816C49.2164 33.6609 48.8801 33.6232 48.5463 33.6206H48.521C48.3616 33.6206 48.1998 33.6332 48.0379 33.6408C47.9722 33.6433 47.9241 33.6483 47.8912 33.6483C47.8027 33.6483 47.8103 33.6181 47.7951 33.4522C47.7268 32.7908 47.7193 32.1999 47.4613 31.5687C47.3197 31.2192 47.1351 30.8873 46.91 30.583C46.8644 30.5176 45.9869 29.4816 45.8301 29.3156L46.1057 29.7004C46.0982 29.7155 46.3586 30.2536 46.1386 29.7381C46.0956 29.7155 46.3966 30.3516 46.5483 30.578C46.6115 30.671 46.652 30.7414 46.6672 30.759C46.8746 31.0432 47.0465 31.3525 47.1806 31.6819C47.3753 32.1571 47.4132 32.6098 47.4588 33.1303C47.4689 33.246 47.479 33.3642 47.4916 33.4823L47.4967 33.5326C47.5068 33.6357 47.5346 33.9501 47.8912 33.9501C47.9165 33.9501 47.9469 33.9501 47.9873 33.9475L48.0556 33.9425L48.1543 33.9375C48.2807 33.9299 48.4021 33.9224 48.521 33.9224H48.5437C48.9028 33.9249 49.181 33.9702 49.4213 34.0632C49.6717 34.1588 49.8917 34.3348 50.0283 34.5435C50.0991 34.6516 50.1421 34.7623 50.1598 34.8704C50.1674 34.9182 50.1699 34.9534 50.1724 34.9836C50.1927 35.318 50.3874 35.3834 50.6201 35.4312C50.7592 35.4613 50.8982 35.484 51.0323 35.5066C51.5432 35.5896 51.9857 35.66 52.2993 36.0397C52.6079 36.4093 52.661 37.0204 52.4384 37.5962C52.3297 37.8703 52.1678 38.1444 51.925 38.4588C51.8795 38.5216 51.8188 38.582 51.7581 38.6448C51.6696 38.7354 51.5786 38.8284 51.4976 38.9441C51.2422 39.3162 51.3813 39.6104 51.4926 39.8468C51.5103 39.8845 51.5305 39.9248 51.5507 39.9675C51.8745 40.7169 52.2665 41.4461 52.7116 42.1301C52.7748 42.2256 52.9417 42.4796 53.2376 42.4947H53.2654C53.4222 42.4947 53.5638 42.4268 53.6625 42.3036C53.837 42.0848 53.8344 41.7428 53.7813 41.519L53.4981 40.3372L53.3641 39.7814C53.3868 39.789 53.407 39.799 53.4247 39.8116C53.5386 39.8971 53.6018 40.0706 53.6524 40.229C53.7662 40.6012 53.8319 40.9784 53.9027 41.3807C53.9558 41.6724 54.009 41.9742 54.0823 42.2734C54.2391 42.9146 54.4692 43.415 54.7803 43.8073L54.793 43.8224C54.9143 43.9733 55.1394 44.2549 55.4379 44.2549C55.5314 44.2549 55.6199 44.2273 55.6958 44.177C56.0473 43.9381 55.8551 43.3824 55.7616 43.1158L55.754 43.0957C55.448 42.2055 55.3696 41.2349 55.2962 40.2944C55.2861 40.1611 55.276 40.0228 55.3139 39.9273C55.3266 39.8946 55.3544 39.8694 55.3721 39.8594C55.3873 39.8795 55.4328 39.9575 55.453 40.1762C55.539 41.1796 55.7262 42.1753 56.0094 43.141C56.2067 43.8149 56.5228 44.6397 57.2335 45.0621C57.2815 45.0923 57.3372 45.1049 57.3903 45.1049C57.4712 45.1049 57.5496 45.0722 57.6103 45.0118C57.9365 44.6698 57.9391 44.1971 57.8961 43.7369C57.757 42.3036 57.5294 40.8677 57.2208 39.4596C57.5395 39.706 57.8253 40.0882 58.0731 40.6062C58.5764 41.6422 58.8116 42.799 58.7559 43.9481C58.7509 44.0538 58.7433 44.1619 58.7357 44.2675C58.7054 44.7101 58.675 45.1677 58.7989 45.6254C58.9583 46.2113 59.4767 46.8047 60.1545 46.8047C60.1798 46.8047 60.2076 46.8047 60.2354 46.8022C60.3695 46.7922 60.4807 46.6941 60.5086 46.5633C61.1054 43.7696 60.9006 40.7546 59.9193 37.8452L59.9218 37.8427Z" fill="#FDFDFD"/>
<path d="M58.121 3.10547H52.4863V5.28061H58.121V3.10547Z" fill="#FF7D29"/>
<path d="M58.121 65.7197H52.4863V67.8949H58.121V65.7197Z" fill="#00B047"/>
</svg>
